<svg width="250px" height="95px" viewBox="0 0 250 95" version="1.1" xmlns="http://www.w3.org/2000/svg" xmlns:xlink="http://www.w3.org/1999/xlink" xmlns:sketch="http://www.bohemiancoding.com/sketch/ns">
    <!-- Generator: Sketch 3.2.2 (9983) - http://www.bohemiancoding.com/sketch -->
    <title>Rainbow</title>
    <desc>Created with Sketch.</desc>
    <defs>
        <linearGradient x1="0.25781251%" y1="49.7500002%" x2="101.257813%" y2="49.7500002%" id="linearGradient-1">
            <stop stop-color="#BF2E44" offset="0%"></stop>
            <stop stop-color="#FE536E" offset="47.5247532%"></stop>
            <stop stop-color="#FAAD0A" offset="100%"></stop>
        </linearGradient>
        <path d="M0.994788918,77.6107498 L1.11808035,62.8286748 L16.4062183,62.8286748 C19.5296169,62.8286748 22.1598079,61.7871298 24.2968701,59.7040085 C26.4339324,57.6208873 27.5024475,55.0570842 27.5024475,52.0125224 C27.5024475,45.8432787 25.3037722,40.7557319 20.9063557,36.7497295 C16.5089392,32.7437271 12.2143305,28.8179036 8.02240072,24.9721413 C3.41949746,19.1233778 1.11808035,11.191612 1.11808035,1.17660596 L16.4062183,1.17660596 C16.4062183,10.3904115 18.6665387,17.721286 23.1872472,23.1694492 C27.379177,27.0152115 31.5710438,30.8609162 35.7629736,34.7066785 C40.3658769,39.2735212 42.667294,45.0420782 42.667294,52.0125224 C42.667294,59.1432067 40.1192965,65.1921796 35.023225,70.1596226 C29.9271535,75.1270655 23.7215467,77.6107498 16.4062183,77.6107498 L0.994788918,77.6107498 Z M86.7914607,76.8030575 L86.7914607,64.4922085 L74.0607939,64.4922085 C70.3560839,64.4922085 67.2576458,63.2775502 64.7653863,60.8481972 C62.2731269,58.4188442 61.0270159,55.3986128 61.0270159,51.7874124 C61.0270159,48.1105538 62.2562876,45.0410795 64.7148678,42.5788974 C67.1734481,40.1167153 70.2213682,38.8856427 73.8587198,38.8856427 L86.8924978,38.9841295 L86.7914607,26.476307 L73.8587198,26.476307 C66.7860918,26.476307 60.7912874,28.9384521 55.874127,33.8628163 C50.9569665,38.7871805 48.4984232,44.7619862 48.4984232,51.7874124 C48.4984232,58.8128387 50.9401272,64.7384014 55.8236084,69.5642783 C60.7070897,74.3901552 66.7524121,76.8030575 73.9597568,76.8030575 L86.7914607,76.8030575 Z M129.081074,76.8030575 L141.50863,76.8030575 L141.50863,26.476307 L115.643148,26.476307 C108.637879,26.476307 102.676753,28.9384521 97.7595926,33.8628163 C92.8424321,38.7871805 90.3838887,44.7619862 90.3838887,51.7874124 C90.3838887,58.8784969 92.8087534,64.8204739 97.6585555,69.6135217 C102.508358,74.4065695 108.536841,76.8030575 115.744185,76.8030575 L124.433371,76.8030575 L124.433371,64.6891821 L115.643148,64.6891821 C112.073155,64.6891821 109.042074,63.4416952 106.549815,60.946684 C104.057555,58.4516728 102.811444,55.3986128 102.811444,51.7874124 C102.811444,48.1105538 104.040716,45.0410795 106.499296,42.5788974 C108.957877,40.1167153 112.005797,38.8856427 115.643148,38.8856427 L129.182111,38.9841295 L129.081074,76.8030575 Z M149.81612,91.152016 L162.44575,91.152016 L162.44575,0.690477577 L149.917157,0.690477577 L149.81612,91.152016 Z M171.539083,91.152016 L184.168713,91.152016 L184.168713,0.690477577 L171.64012,0.690477577 L171.539083,91.152016 Z M202.680944,26.5747938 L190.455462,26.476307 L207.833833,76.8030575 L218.947907,76.8030575 L220.160351,75.3257556 L202.680944,26.5747938 Z M227.010584,91.2230542 C242.430463,64.8159607 250.140286,47.6826336 250.140286,39.8225587 C250.140286,34.3756648 247.364042,30.7042375 241.811471,28.8081668 C236.258901,26.9120962 226.975283,25.964075 213.96034,25.964075 L213.96034,38.7883435 C221.033679,38.7883435 225.242252,38.8572905 226.586186,38.9951866 C232.598524,39.6157188 235.604648,42.0288635 235.604648,46.234693 C235.604648,49.6820942 233.924755,54.8358818 230.564919,61.6962102 C227.205083,68.5565387 221.599547,78.4331951 213.748141,91.3264757 L227.010584,91.2230542 Z" id="path-2"></path>
        <linearGradient x1="50%" y1="0%" x2="50%" y2="100%" id="linearGradient-3">
            <stop stop-color="#000000" offset="0%"></stop>
            <stop stop-color="#000000" offset="100%"></stop>
        </linearGradient>
    </defs>
    <g id="Page-1" stroke="none" stroke-width="1" fill="none" fill-rule="evenodd" sketch:type="MSPage">
        <g id="Rainbow" sketch:type="MSLayerGroup" transform="translate(-1.000000, -0.423077)">
            <g id="Scally-4">
                <use fill="none" sketch:type="MSShapeGroup" xlink:href="#path-2"></use>
                <use fill="none" xlink:href="#path-2"></use>
                <use fill="url(#linearGradient-1)" fill-rule="evenodd" xlink:href="#path-2"></use>
                <use fill="none" xlink:href="#path-2"></use>
                <use fill="none" xlink:href="#path-2"></use>
            </g>
            <path d="M4.69209559,87.8157169 C5.39307949,87.8157169 5.97855157,87.9829947 6.44852941,88.3175551 C6.83884999,88.6043213 7.09773221,88.9587908 7.22518382,89.3809743 C7.249081,89.4845287 7.22916699,89.5761332 7.16544118,89.6557904 C7.10968109,89.7354477 7.03002503,89.7872241 6.92647059,89.8111213 C6.81495042,89.8350185 6.71538034,89.8270529 6.62775735,89.7872243 C6.52420291,89.7394299 6.46047806,89.6597738 6.43658088,89.5482537 C6.31709499,89.1738645 6.11397202,88.8990511 5.82720588,88.7238051 C5.54043974,88.5565249 5.14614222,88.472886 4.64430147,88.472886 C3.96721475,88.472886 3.44546752,88.7556651 3.07904412,89.3212316 C2.75244935,89.8151066 2.58915441,90.4483724 2.58915441,91.2210478 C2.58915441,92.0096547 2.75244935,92.650886 3.07904412,93.144761 C3.43750179,93.6864304 3.95924903,93.957261 4.64430147,93.957261 C5.20986802,93.957261 5.64001078,93.8696394 5.93474265,93.6943934 C6.22947451,93.5191474 6.44852869,93.22442 6.59191176,92.8102022 C6.62377467,92.698682 6.69546513,92.619026 6.80698529,92.5712316 C6.90257401,92.531403 7.00214409,92.5234374 7.10569853,92.5473346 C7.21721869,92.5712317 7.29687476,92.6230082 7.34466912,92.7026654 C7.4004292,92.7823227 7.404412,92.8818928 7.35661765,93.0013787 C7.11764586,93.5032194 6.82690122,93.8815857 6.484375,94.136489 C6.03032861,94.4630837 5.43290812,94.6263787 4.69209559,94.6263787 C3.72824273,94.6263787 2.99540692,94.2838576 2.49356618,93.5988051 C2.05545124,93.0013757 1.83639706,92.2127806 1.83639706,91.2329963 C1.83639706,90.2850749 2.06341685,89.4964799 2.51746324,88.8671875 C3.03523543,88.1662036 3.76010563,87.8157169 4.69209559,87.8157169 L4.69209559,87.8157169 Z M11.0487132,87.8157169 C10.4034894,87.8157169 9.88174219,87.9590978 9.48345588,88.245864 C9.0612724,88.5485616 8.85018382,88.9667559 8.85018382,89.5004596 C8.85018382,89.9943346 9.02542717,90.3886321 9.37591912,90.683364 C9.69454816,90.9621644 10.2083298,91.193167 10.9172794,91.3763787 C11.6979206,91.5675561 12.2316162,91.7786447 12.5183824,92.0096507 C12.7573541,92.1928624 12.8768382,92.4477618 12.8768382,92.7743566 C12.8768382,93.1248486 12.7374401,93.4036448 12.4586397,93.6107537 C12.1639078,93.8417597 11.7576619,93.957261 11.2398897,93.957261 C10.6185631,93.957261 10.1685063,93.8417597 9.88970588,93.6107537 C9.62683692,93.3956791 9.49540441,93.0810376 9.49540441,92.6668199 C9.48743869,92.5552997 9.44362785,92.4716608 9.36397059,92.4159007 C9.29227905,92.3601407 9.20465738,92.3362438 9.10110294,92.3442096 C8.9975485,92.3442096 8.91390963,92.376072 8.85018382,92.4397978 C8.77052656,92.5114893 8.73468133,92.6030938 8.74264706,92.714614 C8.76654424,93.3359406 8.98958122,93.8098942 9.41176471,94.136489 C9.83394819,94.4630837 10.4393343,94.6263787 11.2279412,94.6263787 C12.0165481,94.6263787 12.6219342,94.4431697 13.0441176,94.0767463 C13.4344382,93.7501516 13.6295956,93.3200088 13.6295956,92.7863051 C13.6295956,92.2526015 13.4663007,91.8344072 13.1397059,91.5317096 C12.7971797,91.2051148 12.2077248,90.9462326 11.3713235,90.7550551 C10.6862711,90.5798092 10.2163003,90.3926174 9.96139706,90.1934743 C9.72242528,90.0022968 9.60294118,89.7434146 9.60294118,89.4168199 C9.60294118,89.1380194 9.73835649,88.9070168 10.0091912,88.7238051 C10.2800259,88.5565249 10.6185641,88.472886 11.0248162,88.472886 C11.5585198,88.472886 11.960783,88.5724561 12.2316176,88.7715993 C12.4865209,88.954811 12.6299018,89.2216588 12.6617647,89.5721507 C12.6697304,89.6836709 12.7175241,89.7712926 12.8051471,89.8350184 C12.8848043,89.8907785 12.9764088,89.9146753 13.0799632,89.9067096 C13.1914834,89.8907781 13.2830879,89.8509501 13.3547794,89.7872243 C13.4344367,89.707567 13.4702819,89.6119797 13.4623162,89.5004596 C13.4224875,89.0145503 13.2273302,88.6242355 12.8768382,88.3295037 C12.4626205,87.9869775 11.8532516,87.8157169 11.0487132,87.8157169 L11.0487132,87.8157169 Z M17.4770221,87.8157169 C16.8317982,87.8157169 16.310051,87.9590978 15.9117647,88.245864 C15.4895812,88.5485616 15.2784926,88.9667559 15.2784926,89.5004596 C15.2784926,89.9943346 15.453736,90.3886321 15.8042279,90.683364 C16.122857,90.9621644 16.6366386,91.193167 17.3455882,91.3763787 C18.1262294,91.5675561 18.659925,91.7786447 18.9466912,92.0096507 C19.185663,92.1928624 19.3051471,92.4477618 19.3051471,92.7743566 C19.3051471,93.1248486 19.1657489,93.4036448 18.8869485,93.6107537 C18.5922167,93.8417597 18.1859707,93.957261 17.6681985,93.957261 C17.0468719,93.957261 16.5968151,93.8417597 16.3180147,93.6107537 C16.0551457,93.3956791 15.9237132,93.0810376 15.9237132,92.6668199 C15.9157475,92.5552997 15.8719367,92.4716608 15.7922794,92.4159007 C15.7205879,92.3601407 15.6329662,92.3362438 15.5294118,92.3442096 C15.4258573,92.3442096 15.3422185,92.376072 15.2784926,92.4397978 C15.1988354,92.5114893 15.1629902,92.6030938 15.1709559,92.714614 C15.1948531,93.3359406 15.41789,93.8098942 15.8400735,94.136489 C16.262257,94.4630837 16.8676431,94.6263787 17.65625,94.6263787 C18.4448569,94.6263787 19.050243,94.4431697 19.4724265,94.0767463 C19.862747,93.7501516 20.0579044,93.3200088 20.0579044,92.7863051 C20.0579044,92.2526015 19.8946095,91.8344072 19.5680147,91.5317096 C19.2254885,91.2051148 18.6360336,90.9462326 17.7996324,90.7550551 C17.1145799,90.5798092 16.6446091,90.3926174 16.3897059,90.1934743 C16.1507341,90.0022968 16.03125,89.7434146 16.03125,89.4168199 C16.03125,89.1380194 16.1666653,88.9070168 16.4375,88.7238051 C16.7083347,88.5565249 17.046873,88.472886 17.453125,88.472886 C17.9868286,88.472886 18.3890918,88.5724561 18.6599265,88.7715993 C18.9148297,88.954811 19.0582106,89.2216588 19.0900735,89.5721507 C19.0980393,89.6836709 19.1458329,89.7712926 19.2334559,89.8350184 C19.3131131,89.8907785 19.4047176,89.9146753 19.5082721,89.9067096 C19.6197922,89.8907781 19.7113967,89.8509501 19.7830882,89.7872243 C19.8627455,89.707567 19.8985907,89.6119797 19.890625,89.5004596 C19.8507964,89.0145503 19.655639,88.6242355 19.3051471,88.3295037 C18.8909293,87.9869775 18.2815604,87.8157169 17.4770221,87.8157169 L17.4770221,87.8157169 Z M26.5579044,88.0188419 L25.9604779,88.0188419 C25.840992,88.0188419 25.7454048,88.0507043 25.6737132,88.1144301 C25.6099874,88.178156 25.578125,88.2538292 25.578125,88.3414522 C25.578125,88.4290752 25.6099874,88.5047485 25.6737132,88.5684743 C25.7454048,88.6401658 25.840992,88.676011 25.9604779,88.676011 L26.5579044,88.676011 L26.5579044,94.2201287 C26.5579044,94.3475803 26.5937496,94.4511332 26.6654412,94.5307904 C26.7371327,94.5945163 26.8247544,94.6263787 26.9283088,94.6263787 C27.0238975,94.6263787 27.1075364,94.5905334 27.1792279,94.5188419 C27.2588852,94.4391847 27.2987132,94.3396146 27.2987132,94.2201287 L27.2987132,88.676011 L28.1709559,88.676011 C28.2904418,88.676011 28.3860291,88.6401658 28.4577206,88.5684743 C28.5214464,88.5047485 28.5533088,88.4290752 28.5533088,88.3414522 C28.5533088,88.2538292 28.5214464,88.178156 28.4577206,88.1144301 C28.3860291,88.0507043 28.2904418,88.0188419 28.1709559,88.0188419 L27.2987132,88.0188419 L27.2987132,86.6328125 C27.2987132,86.4814637 27.3385413,86.3579968 27.4181985,86.2624081 C27.5137872,86.1508879 27.6492026,86.0951287 27.8244485,86.0951287 L28.1709559,86.0951287 C28.2904418,86.0951287 28.3860291,86.0592834 28.4577206,85.9875919 C28.5214464,85.9238661 28.5533088,85.8481928 28.5533088,85.7605699 C28.5533088,85.6649811 28.5214464,85.5853251 28.4577206,85.5215993 C28.3860291,85.4578735 28.2904418,85.426011 28.1709559,85.426011 L27.6930147,85.426011 C27.3265913,85.426011 27.0398295,85.5454951 26.8327206,85.7844669 C26.6495089,85.9995415 26.5579044,86.2663893 26.5579044,86.5850184 L26.5579044,88.0188419 Z M30.1544118,88.245864 L30.1544118,94.2320772 C30.1544118,94.3515631 30.190257,94.4471504 30.2619485,94.5188419 C30.3336401,94.5825677 30.4212617,94.6144301 30.5248162,94.6144301 C30.6204049,94.6144301 30.7040438,94.5825677 30.7757353,94.5188419 C30.8553926,94.4471504 30.8952206,94.3515631 30.8952206,94.2320772 L30.8952206,89.5721507 C31.0386037,89.2614874 31.2457094,89.0185364 31.5165441,88.8432904 C31.8192417,88.6441473 32.1657456,88.5445772 32.5560662,88.5445772 C32.7552093,88.5445772 32.8507966,88.4211103 32.8428309,88.1741728 C32.8348652,87.935201 32.7432607,87.8157169 32.5680147,87.8157169 C32.1856599,87.8157169 31.8431388,87.9113042 31.5404412,88.1024816 C31.3094351,88.2458647 31.0943637,88.4569533 30.8952206,88.7357537 L30.8952206,88.245864 C30.8952206,88.1343438 30.8553926,88.0467221 30.7757353,87.9829963 C30.7040438,87.935202 30.6204049,87.9113051 30.5248162,87.9113051 C30.4212617,87.9113051 30.3336401,87.9391848 30.2619485,87.9949449 C30.190257,88.0586707 30.1544118,88.1423095 30.1544118,88.245864 L30.1544118,88.245864 Z M38.2794118,92.8818934 C38.0962001,93.2084882 37.8293522,93.4633876 37.4788603,93.6465993 C37.0885397,93.8537081 36.6185689,93.957261 36.0689338,93.957261 C35.5830245,93.957261 35.2245722,93.8537081 34.9935662,93.6465993 C34.7705258,93.4554218 34.6590074,93.1646772 34.6590074,92.7743566 C34.6590074,92.3681046 34.7784915,92.0614287 35.0174632,91.8543199 C35.2644007,91.6312795 35.6865779,91.479933 36.2840074,91.4002757 C36.8814368,91.3206185 37.3514076,91.229014 37.6939338,91.1254596 C37.9727342,91.0378366 38.1678916,90.9462321 38.2794118,90.8506434 L38.2794118,92.8818934 Z M36.6424632,87.8157169 C35.9733422,87.8157169 35.4356638,87.9630806 35.0294118,88.2578125 C34.615194,88.5684758 34.3602946,89.030481 34.2647059,89.6438419 C34.2408087,89.7633278 34.2647055,89.8589151 34.3363971,89.9306066 C34.4001229,90.0022982 34.4797789,90.0421262 34.5753676,90.0500919 C34.6789221,90.0580576 34.7665438,90.0341608 34.8382353,89.9784007 C34.9258583,89.9226407 34.9776347,89.8429846 34.9935662,89.7394301 C35.0333948,89.3411438 35.1727929,89.0384508 35.4117647,88.8313419 C35.6825994,88.5923701 36.0888453,88.472886 36.6305147,88.472886 C37.1881155,88.472886 37.6063099,88.5764389 37.8851103,88.7835478 C38.1479793,88.9826909 38.2794118,89.2774184 38.2794118,89.667739 C38.2794118,90.0102652 38.1599277,90.2452506 37.9209559,90.3727022 C37.6740184,90.5081195 37.1243915,90.6355693 36.2720588,90.7550551 C35.308206,90.874541 34.6430778,91.1413889 34.2766544,91.5556066 C34.0297169,91.8423728 33.90625,92.2486187 33.90625,92.7743566 C33.90625,93.3558546 34.0854761,93.8059114 34.4439338,94.1245404 C34.8103572,94.4591009 35.3520185,94.6263787 36.0689338,94.6263787 C36.5946717,94.6263787 37.0646425,94.5347742 37.4788603,94.3515625 C37.7815579,94.2161452 38.0523885,94.0329362 38.2913603,93.8019301 C38.2913603,94.0488677 38.3630508,94.224111 38.5064338,94.3276654 C38.6816798,94.4391856 38.9963213,94.4949449 39.4503676,94.4949449 C39.5618878,94.4949449 39.6495095,94.4590996 39.7132353,94.3874081 C39.7689954,94.3236823 39.796875,94.248009 39.796875,94.160386 C39.7889093,94.0647973 39.7570468,93.9851413 39.7012868,93.9214154 C39.637561,93.8576896 39.5579049,93.8258272 39.4623162,93.8258272 C39.3189331,93.8258272 39.2074146,93.7859992 39.1277574,93.7063419 C39.0560658,93.6346504 39.0202206,93.5310975 39.0202206,93.3956801 L39.0202206,89.6079963 C39.0202206,88.978704 38.789218,88.512716 38.3272059,88.2100184 C37.9209539,87.9471494 37.3593786,87.8157169 36.6424632,87.8157169 L36.6424632,87.8157169 Z M41.1112132,88.3175551 L41.1112132,94.2559743 C41.1112132,94.3674944 41.1470585,94.4590989 41.21875,94.5307904 C41.2904415,94.5945163 41.3780632,94.6263787 41.4816176,94.6263787 C41.5772064,94.6263787 41.6608452,94.5945163 41.7325368,94.5307904 C41.812194,94.4590989 41.8520221,94.3674944 41.8520221,94.2559743 L41.8520221,89.6199449 C42.114891,89.2057271 42.3936873,88.9109997 42.6884191,88.7357537 C42.983151,88.5605077 43.3416033,88.472886 43.7637868,88.472886 C44.1461416,88.472886 44.4488347,88.5844045 44.671875,88.8074449 C44.8710182,89.0145537 44.9705882,89.2893672 44.9705882,89.6318934 L44.9705882,94.2559743 C44.9705882,94.3674944 45.0064335,94.4590989 45.078125,94.5307904 C45.1498165,94.5945163 45.2374382,94.6263787 45.3409926,94.6263787 C45.4365814,94.6263787 45.5202202,94.5945163 45.5919118,94.5307904 C45.671569,94.4590989 45.7113971,94.3674944 45.7113971,94.2559743 L45.7113971,89.7274816 C45.9424031,89.281401 46.2012853,88.9627767 46.4880515,88.7715993 C46.7748176,88.5724561 47.1452183,88.472886 47.5992647,88.472886 C47.997551,88.472886 48.3042269,88.5844045 48.5193015,88.8074449 C48.7184446,89.0145537 48.8180147,89.2893672 48.8180147,89.6318934 L48.8180147,94.2559743 C48.8180147,94.3674944 48.8538599,94.4590989 48.9255515,94.5307904 C48.997243,94.5945163 49.0848647,94.6263787 49.1884191,94.6263787 C49.2840078,94.6263787 49.3676467,94.5945163 49.4393382,94.5307904 C49.5189955,94.4590989 49.5588235,94.3674944 49.5588235,94.2559743 L49.5588235,89.5124081 C49.5588235,89.0822589 49.3955286,88.7038926 49.0689338,88.3772978 C48.6945447,88.0029087 48.1966943,87.8157169 47.5753676,87.8157169 C47.1213213,87.8157169 46.7110925,87.9192698 46.3446691,88.1263787 C46.0101086,88.3095904 45.739278,88.5644898 45.5321691,88.8910846 C45.388786,88.588387 45.2015943,88.3494188 44.9705882,88.1741728 C44.6439935,87.935201 44.2337647,87.8157169 43.7398897,87.8157169 C43.3495691,87.8157169 42.96722,87.9192698 42.5928309,88.1263787 C42.2901333,88.2936589 42.0431995,88.5047475 41.8520221,88.7596507 L41.8520221,88.3175551 C41.8520221,88.1821378 41.812194,88.0785849 41.7325368,88.0068934 C41.6608452,87.9352018 41.5772064,87.8993566 41.4816176,87.8993566 C41.3780632,87.8993566 41.2904415,87.9352018 41.21875,88.0068934 C41.1470585,88.0785849 41.1112132,88.1821378 41.1112132,88.3175551 L41.1112132,88.3175551 Z M55.9034926,92.6070772 C55.7123152,93.021295 55.493261,93.3319536 55.2463235,93.5390625 C54.9276945,93.8178629 54.5294142,93.957261 54.0514706,93.957261 C53.4460754,93.957261 52.9641562,93.6824476 52.6056985,93.1328125 C52.2950352,92.6708004 52.1237747,92.1012595 52.0919118,91.4241728 L56.7876838,91.4241728 L56.7876838,91.2329963 C56.7876838,90.3010064 56.5566812,89.5124113 56.0946691,88.8671875 C55.5848626,88.1662036 54.9038033,87.8157169 54.0514706,87.8157169 C53.1991379,87.8157169 52.5220613,88.1662036 52.0202206,88.8671875 C51.5661742,89.5124113 51.3391544,90.3010064 51.3391544,91.2329963 C51.3391544,92.1570206 51.5661742,92.93765 52.0202206,93.5749081 C52.5220613,94.275892 53.1991379,94.6263787 54.0514706,94.6263787 C54.6568658,94.6263787 55.1825958,94.4710493 55.6286765,94.160386 C56.0667914,93.8656542 56.4013469,93.4394942 56.6323529,92.8818934 C56.6801473,92.7624075 56.6801473,92.650889 56.6323529,92.5473346 C56.5925243,92.4597116 56.5248167,92.3999695 56.4292279,92.3681066 C56.3256735,92.328278 56.2261034,92.3242952 56.1305147,92.3561581 C56.0269603,92.4039524 55.951287,92.4875913 55.9034926,92.6070772 L55.9034926,92.6070772 Z M52.1158088,90.7550551 C52.1636032,90.1735571 52.3348637,89.6717239 52.6295956,89.2495404 C52.9880533,88.7317682 53.4620069,88.472886 54.0514706,88.472886 C54.6409343,88.472886 55.1188707,88.735751 55.4852941,89.261489 C55.780026,89.6916382 55.9512865,90.1894886 55.9990809,90.7550551 L52.1158088,90.7550551 Z M59.7389706,94.1842831 C59.8106621,94.479015 59.9500602,94.6263787 60.1571691,94.6263787 C60.364278,94.6263787 60.5076589,94.479015 60.5873162,94.1842831 L62.0091912,89.2734375 L63.4310662,94.1842831 C63.5027577,94.479015 63.6421558,94.6263787 63.8492647,94.6263787 C64.0563736,94.6263787 64.1997545,94.479015 64.2794118,94.1842831 L66.2270221,88.245864 C66.258885,88.1343438 66.2429537,88.0387565 66.1792279,87.9590993 C66.1234679,87.8953735 66.0438118,87.8515626 65.9402574,87.8276654 C65.8367029,87.8037683 65.7411156,87.8117339 65.6534926,87.8515625 C65.5579039,87.8834254 65.4981619,87.9471503 65.4742647,88.042739 L63.8492647,93.0730699 L62.3795956,88.1263787 C62.3158698,87.9192698 62.1884201,87.8157169 61.9972426,87.8157169 C61.8140309,87.8157169 61.690564,87.9192698 61.6268382,88.1263787 L60.1571691,93.0611213 L58.5321691,88.042739 C58.5003062,87.9471503 58.4365814,87.8834254 58.3409926,87.8515625 C58.2533697,87.8117339 58.1617652,87.8037683 58.0661765,87.8276654 C57.962622,87.8515626 57.882966,87.8953735 57.8272059,87.9590993 C57.7634801,88.0387565 57.7515317,88.1343438 57.7913603,88.245864 L59.7389706,94.1842831 Z M70.4209559,87.839614 C69.4730345,87.839614 68.7322331,88.1901007 68.1985294,88.8910846 C67.7285516,89.5124112 67.4935662,90.2970234 67.4935662,91.2449449 C67.4935662,92.1849005 67.7285516,92.96553 68.1985294,93.5868566 C68.7322331,94.2958062 69.4730345,94.6502757 70.4209559,94.6502757 C71.3609116,94.6502757 72.0977302,94.2958062 72.6314338,93.5868566 C73.1093774,92.96553 73.3483456,92.1849005 73.3483456,91.2449449 C73.3483456,90.2970234 73.1093774,89.5124112 72.6314338,88.8910846 C72.0977302,88.1901007 71.3609116,87.839614 70.4209559,87.839614 L70.4209559,87.839614 Z M70.4209559,88.4967831 C71.1219398,88.4967831 71.6675838,88.7795621 72.0579044,89.3451287 C72.4163621,89.8469694 72.5955882,90.4802351 72.5955882,91.2449449 C72.5955882,91.9937231 72.4163621,92.623006 72.0579044,93.1328125 C71.6675838,93.6983791 71.1219398,93.9811581 70.4209559,93.9811581 C69.7120063,93.9811581 69.1583966,93.6983791 68.7601103,93.1328125 C68.4175841,92.6309718 68.2463235,92.0016888 68.2463235,91.2449449 C68.2463235,90.4802351 68.4175841,89.8469694 68.7601103,89.3451287 C69.1583966,88.7795621 69.7120063,88.4967831 70.4209559,88.4967831 L70.4209559,88.4967831 Z M75.1764706,88.245864 L75.1764706,94.2320772 C75.1764706,94.3515631 75.2123158,94.4471504 75.2840074,94.5188419 C75.3556989,94.5825677 75.4433206,94.6144301 75.546875,94.6144301 C75.6424637,94.6144301 75.7261026,94.5825677 75.7977941,94.5188419 C75.8774514,94.4471504 75.9172794,94.3515631 75.9172794,94.2320772 L75.9172794,89.5721507 C76.0606625,89.2614874 76.2677683,89.0185364 76.5386029,88.8432904 C76.8413005,88.6441473 77.1878044,88.5445772 77.578125,88.5445772 C77.7772682,88.5445772 77.8728554,88.4211103 77.8648897,88.1741728 C77.856924,87.935201 77.7653195,87.8157169 77.5900735,87.8157169 C77.2077187,87.8157169 76.8651976,87.9113042 76.5625,88.1024816 C76.3314939,88.2458647 76.1164226,88.4569533 75.9172794,88.7357537 L75.9172794,88.245864 C75.9172794,88.1343438 75.8774514,88.0467221 75.7977941,87.9829963 C75.7261026,87.935202 75.6424637,87.9113051 75.546875,87.9113051 C75.4433206,87.9113051 75.3556989,87.9391848 75.2840074,87.9949449 C75.2123158,88.0586707 75.1764706,88.1423095 75.1764706,88.245864 L75.1764706,88.245864 Z M79.2509191,85.8203125 L79.2509191,94.2559743 C79.2509191,94.3674944 79.2867643,94.4590989 79.3584559,94.5307904 C79.4301474,94.5945163 79.5177691,94.6263787 79.6213235,94.6263787 C79.7169122,94.6263787 79.8005511,94.5905334 79.8722426,94.5188419 C79.9518999,94.4471504 79.9917279,94.3515631 79.9917279,94.2320772 L79.9917279,92.0693934 L81.1387868,90.9342831 L83.4329044,94.4590993 C83.5045959,94.554688 83.5962004,94.6104472 83.7077206,94.6263787 C83.8033093,94.6343444 83.8949138,94.6064648 83.9825368,94.542739 C84.062194,94.4869789 84.1099877,94.4073228 84.1259191,94.3037684 C84.1418506,94.2002139 84.1139709,94.0966611 84.0422794,93.9931066 L81.6525735,90.4324449 L83.7196691,88.3892463 C83.8152578,88.3016233 83.8670343,88.2060361 83.875,88.1024816 C83.875,88.0148586 83.8431376,87.9352026 83.7794118,87.863511 C83.7077202,87.7997852 83.6240814,87.76394 83.5284926,87.7559743 C83.4249382,87.7559743 83.3293509,87.7958023 83.2417279,87.8754596 L79.9917279,91.089614 L79.9917279,85.8203125 C79.9917279,85.6928609 79.9518999,85.5932908 79.8722426,85.5215993 C79.8005511,85.4578735 79.7169122,85.426011 79.6213235,85.426011 C79.5177691,85.426011 79.4301474,85.4578735 79.3584559,85.5215993 C79.2867643,85.5932908 79.2509191,85.6928609 79.2509191,85.8203125 L79.2509191,85.8203125 Z" id="css-framework" fill="url(#linearGradient-3)" sketch:type="MSShapeGroup"></path>
        </g>
    </g>
</svg>