<?xml version="1.0" encoding="UTF-8" standalone="no"?>
<svg width="386px" height="60px" viewBox="0 0 386 60" version="1.1" xmlns="http://www.w3.org/2000/svg" xmlns:xlink="http://www.w3.org/1999/xlink" xmlns:sketch="http://www.bohemiancoding.com/sketch/ns">
    <!-- Generator: Sketch 3.2.2 (9983) - http://www.bohemiancoding.com/sketch -->
    <title>Thank you</title>
    <desc>Created with Sketch.</desc>
    <defs></defs>
    <g id="Page-1" stroke="none" stroke-width="1" fill="none" fill-rule="evenodd" sketch:type="MSPage">
        <path d="M16.6545033,49.7496842 L26.2055077,49.7496842 L26.2055077,10.0023158 L42.5568271,10.0023158 L42.5568271,0.376 L0.456,0.376 L0.456,10.0023158 L16.8073194,10.0023158 L16.6545033,49.7496842 Z M51.0381189,49.7496842 L60.4363072,49.7496842 L60.5127152,19.9391579 L70.2929437,19.9391579 C72.1776846,19.9391579 73.7822373,20.5860812 75.1066499,21.8799474 C76.4310624,23.1738135 77.0932588,24.7264295 77.0932588,26.5378421 L77.1696668,49.7496842 L86.415039,49.7496842 L86.415039,26.5378421 C86.415039,21.9834334 84.8614245,18.1277702 81.7541489,14.9707368 C78.6468733,11.8137035 74.8010406,10.2352105 70.2165356,10.2352105 L60.5891233,10.3128421 L60.5891233,0.376 L51.114527,0.376 L51.0381189,49.7496842 Z M124.0842,49.7496842 L133.482388,49.7496842 L133.482388,10.0799474 L113.921931,10.0799474 C108.624281,10.0799474 104.116252,12.0207174 100.397709,15.9023158 C96.6791664,19.7839141 94.8199228,24.4935162 94.8199228,30.0312632 C94.8199228,35.6207648 96.6536973,40.3044899 100.321301,44.0825789 C103.988905,47.860668 108.547872,49.7496842 113.99834,49.7496842 L120.56943,49.7496842 L120.56943,40.201 L113.921931,40.201 C111.222167,40.201 108.929949,39.2176765 107.045208,37.251 C105.160467,35.2843235 104.218111,32.8777686 104.218111,30.0312632 C104.218111,27.1330031 105.147733,24.7135097 107.007004,22.7727105 C108.866276,20.8319113 111.171228,19.8615263 113.921931,19.8615263 L124.160608,19.9391579 L124.0842,49.7496842 Z M141.887272,49.7496842 L151.514685,49.7496842 L151.514685,19.9391579 L158.009367,19.9391579 C160.811009,19.9391579 163.192369,20.883666 165.153519,22.7727105 C167.114668,24.6617551 168.095228,26.9777407 168.095228,29.7207368 L168.171636,49.7496842 L177.646232,49.7496842 L177.646232,29.7207368 C177.646232,24.3382538 175.76152,19.7580364 171.992038,15.9799474 C168.222556,12.2018583 163.612651,10.3128421 158.162184,10.3128421 L141.887272,10.2352105 L141.887272,49.7496842 Z M186.051116,49.7496842 L195.525712,49.7496842 L195.525712,29.876 L202.020395,29.876 C204.872976,29.876 207.29254,30.8334466 209.279159,32.7483684 C211.265778,34.6632903 212.259072,37.0180913 212.259072,39.8128421 L212.259072,49.7496842 L221.733668,49.7496842 L221.733668,39.8128421 C221.733668,36.6040541 220.944127,33.6540836 219.365019,30.9628421 C217.785912,28.2716006 215.671978,26.2531997 213.023152,24.9075789 C215.773855,23.6137128 217.913259,21.6729428 219.441427,19.0852105 C220.969596,16.4974783 221.733668,13.5733847 221.733668,10.3128421 L212.259072,10.3128421 C212.259072,13.1075929 211.316716,15.4623939 209.431975,17.3773158 C207.547234,19.2922376 205.229547,20.2496842 202.478844,20.2496842 L195.602121,20.2496842 L195.602121,0.376 L186.127524,0.376 L186.051116,49.7496842 Z M261.007398,10.1575789 L251.762026,10.0799474 L264.904208,49.7496842 L273.309092,49.7496842 L274.225988,48.5852105 L261.007398,10.1575789 Z M268.036937,59.376 L277.587942,59.2983684 C288.692632,39.4763395 294.244893,26.6155032 294.244893,20.7154737 C294.244893,16.6268567 292.24557,13.8709633 288.246863,12.4477105 C284.248155,11.0244578 277.562519,10.3128421 268.189753,10.3128421 L268.189753,19.9391579 C273.283648,19.9391579 276.31447,19.9909118 277.28231,20.0944211 C281.61212,20.5602129 283.776993,22.3715983 283.776993,25.5286316 C283.776993,28.1163638 282.567211,31.9849655 280.147611,37.1345526 C277.728011,42.2841398 273.69116,49.6978814 268.036937,59.376 L268.036937,59.376 Z M341.617875,30.0312632 C341.617875,24.4935162 339.733162,19.8097911 335.96368,15.9799474 C332.194198,12.1501037 327.584293,10.2352105 322.133826,10.2352105 C316.683359,10.2352105 312.073454,12.1501037 308.303972,15.9799474 C304.53449,19.8097911 302.649777,24.4935162 302.649777,30.0312632 C302.649777,35.5690101 304.521755,40.2397968 308.265768,44.0437632 C312.00978,47.8477295 316.63242,49.7496842 322.133826,49.7496842 C327.584293,49.7496842 332.194198,47.860668 335.96368,44.0825789 C339.733162,40.3044899 341.617875,35.6207648 341.617875,30.0312632 L341.617875,30.0312632 Z M331.914054,29.6431053 L332.143278,30.0312632 C332.143278,32.9295233 331.188188,35.3490166 329.277977,37.2898158 C327.367767,39.230615 324.986407,40.201 322.133826,40.201 C319.332184,40.201 316.963559,39.2176765 315.027879,37.251 C313.092199,35.2843235 312.124373,32.8777686 312.124373,30.0312632 C312.124373,27.1847577 313.092199,24.7782028 315.027879,22.8115263 C316.963559,20.8448498 319.332184,19.8615263 322.133826,19.8615263 C324.935468,19.8615263 327.26589,20.8060344 329.125161,22.6950789 C330.984433,24.5841235 331.914054,26.9001091 331.914054,29.6431053 L331.914054,29.6431053 Z M385.705311,10.2352105 L376.154306,10.3128421 L376.154306,40.201 L366.144854,40.201 C364.361991,40.201 362.833845,39.5281997 361.560372,38.1825789 C360.286898,36.8369582 359.650171,35.1808344 359.650171,33.2141579 L359.573763,10.3128421 L350.175575,10.3128421 L350.175575,33.2141579 C350.175575,37.8720759 351.716455,41.7924315 354.798261,44.9753421 C357.880067,48.1582528 361.662227,49.7496842 366.144854,49.7496842 L385.705311,49.7496842 L385.705311,10.2352105 Z" id="Thank-you" fill="#FFFFFF" sketch:type="MSShapeGroup"></path>
    </g>
</svg>